<svg xmlns="http://www.w3.org/2000/svg" data-name="Layer 1" viewBox="0 0 32 32"><ellipse cx="17.389" cy="11.052" fill="#bc9a7e" rx="1.176" ry="5.173" transform="rotate(-13.807 17.388 11.051)"/><path fill="#f8a839" d="M15.424.768a5.452,5.452,0,0,0-1.241,2.379A3.39,3.39,0,0,0,15.556,6.66L16.8,6.355c.1-.025.252-.342.3-.422a2.109,2.109,0,0,0-.5-2.8,9.788,9.788,0,0,1-.933-.648A1.318,1.318,0,0,1,15.424.768Z"/><path fill="#fbea9a" d="M24.04,14.557a1.243,1.243,0,0,1-.33.04,1.352,1.352,0,0,1-1.31-1.02l-.16-.65,2.61-.67.17.66A1.341,1.341,0,0,1,24.04,14.557Z"/><polygon fill="#ed4569" points="24.85 12.257 22.24 12.927 20.01 4.127 19.75 3.107 20.57 .807 22.37 2.437 22.63 3.477 24.85 12.257"/><path fill="#e0e0e2" d="M13.02,21.447l-.98.16a1.988,1.988,0,0,1-2.3-1.64L7.68,7.637l-.16-.99-.33-1.97-.17-.99L6.94,3.2A2,2,0,0,1,8.59.9l.98-.16a1.988,1.988,0,0,1,2.3,1.64l2.8,16.77A2,2,0,0,1,13.02,21.447Z"/><path fill="#575854" d="M9.57 3.777a.491.491 0 0 1-.41.57l-1.97.33-.17-.99L9 3.367A.489.489 0 0 1 9.57 3.777zM9.08 6.9a.514.514 0 0 1-.41.58l-.99.16-.16-.99.98-.16A.506.506 0 0 1 9.08 6.9z"/><line x1="10.065" x2="8.092" y1="9.775" y2="10.104" fill="#fbea9a"/><polygon fill="#fbea9a" points="22.63 3.477 22.61 3.507 20.07 4.147 20.01 4.127 19.75 3.107 20.57 .807 22.37 2.437 22.63 3.477"/><path fill="#fbc47c" d="M5.835,9.592a10.388,10.388,0,0,0-.21,2.1c0,.18.01.36.02.54a7.494,7.494,0,0,1-.39,2.74l-.95,2.91a1,1,0,0,0,.95,1.31h2.12v2.75a4,4,0,0,0,4,4h2.57a1.907,1.907,0,0,1,.68.12,1.987,1.987,0,0,1,1.3,1.57l.19,1.21.07.49.27,1.72a.619.619,0,0,0,.08.24h11.21c-.51-1.03-1.01-2.07-1.52-3.11-.36-.91-.92-2.3-1.48-3.7a9.136,9.136,0,0,1,.61-7.78,10.481,10.481,0,0,0,1.06-7.11Z"/></svg>