<svg xmlns="http://www.w3.org/2000/svg" viewBox="0 0 90 90"><circle cx="45" cy="45" r="45" fill="#bdc3c7"/><path fill="#464c63" d="M33.1 57.9a1 1 0 01-.71-1.71l19-19a1 1 0 011.41 1.41l-19 19a1 1 0 01-.7.3zM58.48 32.52a1 1 0 01-.71-1.71l9.52-9.52a1 1 0 011.41 1.41l-9.52 9.52a1 1 0 01-.7.3z"/><path fill="#64a5da" d="M33.1 37.86h19.04V56.9h6.34V31.52H33.1v6.34z"/><path fill="#464c63" d="M58.48 57.9h-6.34a1 1 0 0 1-1-1v-18h-18a1 1 0 0 1-1-1v-6.38a1 1 0 0 1 1-1h25.34a1 1 0 0 1 1 1V56.9a1 1 0 0 1-1 1zm-5.34-2h4.34V32.52H34.1v4.34h18a1 1 0 0 1 1 1z"/><path fill="#64a5da" d="M22 31.52h4.76v6.35H22z"/><path fill="#464c63" d="M26.76 38.86H22a1 1 0 0 1-1-1v-6.34a1 1 0 0 1 1-1h4.76a1 1 0 0 1 1 1v6.34a1 1 0 0 1-1 1zm-3.76-2h2.76v-4.34H23z"/><path fill="#64a5da" d="M52.14 63.24h6.34V68h-6.34z"/><path fill="#464c63" d="M58.48 69h-6.34a1 1 0 0 1-1-1v-4.76a1 1 0 0 1 1-1h6.34a1 1 0 0 1 1 1V68a1 1 0 0 1-1 1zm-5.34-2h4.34v-2.76h-4.34z"/><path fill="#93cfef" d="M33.1 56.9V26.76h-6.34V63.24H63.24V56.9H33.1z"/><path fill="#464c63" d="M63.24 64.24H26.76a1 1 0 0 1-1-1V26.76a1 1 0 0 1 1-1h6.34a1 1 0 0 1 1 1V55.9h29.14a1 1 0 0 1 1 1v6.34a1 1 0 0 1-1 1zm-35.48-2h34.48V57.9H33.1a1 1 0 0 1-1-1V27.76h-4.34z"/></svg>