<svg xmlns="http://www.w3.org/2000/svg" viewBox="0 0 1024 1024"><path fill="#ED7161" d="M0 0h1024v1024H0z"/><path fill="#FFF" d="M539.755 712h-21.053v-67.948h21.053V712zM470.85 712h-21.052v-67.948h21.053V712z"/><path fill="#FFF" d="M585.684 712h-181.81v-21.053h181.81V712zM644.052 654.578H345.496c-18.467 0-33.496-15.03-33.496-33.491v-241.16c0-18.462 15.029-33.48 33.496-33.48h280.196V367.5H345.496c-6.861 0-12.443 5.571-12.443 12.428v241.159c0 6.856 5.582 12.438 12.443 12.438h298.556c6.862 0 12.448-5.582 12.448-12.438v-222.77h21.053v222.77c0 18.462-15.03 33.491-33.501 33.491z"/><path fill="#FFF" d="M677.553 604.825H312v-21.054h365.553v21.054zM589.858 490.361l-56.22-56.218 110.794-110.794c7.211-7.216 17.46-11.349 28.115-11.349 10.655 0 20.904 4.133 28.11 11.349 7.205 7.206 11.343 17.455 11.343 28.115 0 10.65-4.138 20.898-11.349 28.104L589.858 490.361zm-26.45-56.218l26.45 26.449 95.908-95.91c3.295-3.29 5.181-8.11 5.181-13.218 0-5.12-1.886-9.94-5.18-13.23-6.6-6.59-19.871-6.59-26.45 0l-95.909 95.909zM504.342 552.081c-20.287 0-40.045-8.122-54.21-22.298l-17.953-17.968h25.4c8.553 0 12.886-2.487 12.886-7.401 0-11.01 1.604-25.247 14.12-37.757 9.636-8.78 21.638-13.416 34.143-13.416 12.7 0 24.46 4.76 33.116 13.416 9.01 9.024 14.016 21.452 13.738 34.117-.282 12.686-5.772 24.558-15.465 33.45-11.385 11.401-27.76 17.857-45.775 17.857zm-23.17-26.06a56.338 56.338 0 0023.17 5.006c12.392 0 23.478-4.265 31.214-12.006 7.283-6.692 8.871-13.836 8.98-18.72.153-6.948-2.612-13.784-7.582-18.759-9.468-9.479-27.2-9.335-37.85.349-6.234 6.25-7.586 13.569-7.586 22.523 0 7.596-2.976 15.934-10.347 21.607z"/></svg>