<svg xmlns="http://www.w3.org/2000/svg" data-name="Layer 1" viewBox="0 0 32 32"><path fill="#bc9a7e" d="M9.911,19.518c0,6.54-1.02,11.84-2.27,11.84s-2.26-5.3-2.26-11.84c0-1.55.06-3.04.16-4.39.33-4.36,1.15-7.44,2.1-7.44s1.78,3.11,2.11,7.51C9.851,16.538,9.911,18,9.911,19.518Z"/><path fill="#e0e0e2" d="M9.751,15.2l-.02.02a4.459,4.459,0,0,1-4.17,0l-.02-.09c.33-4.36,1.15-7.44,2.1-7.44S9.421,10.8,9.751,15.2Z"/><path fill="#f8a839" d="M8.458.642A7.272,7.272,0,0,0,6.094,3.328a4.521,4.521,0,0,0,.659,4.987H8.458c.14,0,.435-.363.52-.451a2.813,2.813,0,0,0,.244-3.783,13.055,13.055,0,0,1-1-1.136A1.758,1.758,0,0,1,8.458.642Z"/><path fill="#ed4569" d="M31.5,13.338v8a1,1,0,0,1-1,1H17.231v-10H30.5A1,1,0,0,1,31.5,13.338Z"/><rect width="3" height="7" x="6.23" y="19.338" fill="#fcc37a" rx="1.486" ry="1.486" transform="rotate(-90 7.73 22.838)"/><polygon fill="#fcc37a" points="23.361 12.338 23.361 22.338 16.515 22.338 17.231 12.338 23.361 12.338"/><rect width="3" height="8" x="5.73" y="15.838" fill="#fcc37a" rx="1.486" ry="1.486" transform="rotate(-90 7.23 19.838)"/><path fill="#fcc37a" d="M18.306,20.687A5.849,5.849,0,0,1,14.04,23.7l-3.81.635-.483-7.245,1.483-6.755h1.96a5.9,5.9,0,0,1,5.632,3.93"/><rect width="3" height="9" x="5.23" y="12.338" fill="#fcc37a" rx="1.486" ry="1.486" transform="rotate(-90 6.73 16.838)"/><rect width="3" height="8" x="5.73" y="9.838" fill="#fcc37a" rx="1.486" ry="1.486" transform="rotate(-90 7.23 13.838)"/><path fill="#fcc37a" d="M12.23,10.338h-1a2,2,0,0,0-2,2v2.5a1.5,1.5,0,0,0,3,0v-1.5"/><path d="M30.5,11.838H17.909a6.5,6.5,0,0,0-4.718-2H11.23a2.486,2.486,0,0,0-1.629.611,11.205,11.205,0,0,0-.58-1.914c.1-.092.2-.2.315-.323A3.3,3.3,0,0,0,9.61,3.768a6.36,6.36,0,0,0-.454-.493,3.669,3.669,0,0,1-.513-.6c-.28-.449-.385-1.3.089-1.62h0A.5.5,0,0,0,8.18.226l0,0A7.8,7.8,0,0,0,5.646,3.1a4.967,4.967,0,0,0,.622,5.39,15.181,15.181,0,0,0-.853,3.344H4.72a2,2,0,0,0-1.651,3.119,1.992,1.992,0,0,0,0,3.764,2.017,2.017,0,0,0-.341,1.128,1.986,1.986,0,0,0,1.35,1.875,2.01,2.01,0,0,0-.35,1.125,1.974,1.974,0,0,0,1.386,1.9c.306,3.331.99,7.109,2.523,7.109s2.217-3.713,2.527-7.02h.574a1.772,1.772,0,0,0,.854-.219l2.532-.419a6.539,6.539,0,0,0,3.028-1.378.47.47,0,0,0,.077.016H30.5a1.5,1.5,0,0,0,1.5-1.5v-8A1.5,1.5,0,0,0,30.5,11.838ZM6.54,3.552a6.605,6.605,0,0,1,.894-1.329,2.641,2.641,0,0,0,.362.987,4.443,4.443,0,0,0,.649.769,5.225,5.225,0,0,1,.385.416,2.32,2.32,0,0,1-.213,3.123L8.541,7.6c-.037.042-.135.151-.205.216H7A3.989,3.989,0,0,1,6.54,3.552Zm.68,5.264h.841a12.011,12.011,0,0,1,.773,2.849c-.015.058-.03.115-.042.173H6.43A13.077,13.077,0,0,1,7.22,8.815Zm-2.5,4.022H8.73v2H4.72a1,1,0,0,1,0-2ZM2.73,16.828a.991.991,0,0,1,.989-.99h5.3a1.73,1.73,0,0,0,.467.553,1.931,1.931,0,0,0,1.24.447l0,.01a.952.952,0,0,1-.378.762.829.829,0,0,1-.486.209.362.362,0,0,0-.126.019H3.72A1,1,0,0,1,2.73,16.828Zm1,3a.991.991,0,0,1,.989-.99H9.74l.029,0a.5.5,0,0,0,.1.021.831.831,0,0,1,.476.191.968.968,0,0,1,.391.78v.02a.971.971,0,0,1-.542.87.933.933,0,0,1-.448.12H4.72A1,1,0,0,1,3.73,19.828ZM7.652,30.859c-.328-.105-1.108-1.73-1.523-6.021H9.161C8.747,29.133,7.96,30.755,7.652,30.859Zm4.078-8.011a.97.97,0,0,1-.465.812l-1.072.177L5.626,23.83a1,1,0,0,1-.117-1.972,1.052,1.052,0,0,1,.211-.021H10.74a.992.992,0,0,1,.99.99ZM31,21.338a.5.5,0,0,1-.5.5H18.144a5.841,5.841,0,0,0,.6-.919.5.5,0,1,0-.887-.461,4.729,4.729,0,0,1-.976,1.292,5.49,5.49,0,0,1-2.922,1.464l-1.328.22a1.926,1.926,0,0,0,.1-.586v-.02a1.986,1.986,0,0,0-1.35-1.875,1.955,1.955,0,0,0,.35-1.1v-.02a1.972,1.972,0,0,0-.7-1.492,1.951,1.951,0,0,0,.7-1.508,1.919,1.919,0,0,0-.025-.254,1.977,1.977,0,0,0,1.025-1.736v-1.5a.5.5,0,0,0-1,0v1.5a1.006,1.006,0,0,1-.795.976c-.024.009-.119,0-.232.024a.957.957,0,0,1-.6-.235.826.826,0,0,1-.29-.383L9.8,15.187l-.009-.026a.863.863,0,0,1-.058-.323v-2.5a1.4,1.4,0,0,1,.081-.464.423.423,0,0,0,.015-.053,1.484,1.484,0,0,1,1.4-.982h1.96a5.5,5.5,0,0,1,4.14,1.836,4.83,4.83,0,0,1,1.016,1.75.5.5,0,1,0,.949-.312,5.877,5.877,0,0,0-.612-1.274H30.5a.5.5,0,0,1,.5.5Z"/><line x1="23.36" x2="23.36" y1="22.338" y2="12.338" fill="none" stroke="#000" stroke-linecap="round" stroke-linejoin="round"/></svg>