<svg xmlns="http://www.w3.org/2000/svg" data-name="Layer 1" viewBox="0 0 32 32"><path d="M30.57,11.84H17.99a6.488,6.488,0,0,0-4.73-2H11.3a2.434,2.434,0,0,0-1.62.6,10.723,10.723,0,0,0-.58-1.9,3.381,3.381,0,0,0,.31-.33,3.3,3.3,0,0,0,.27-4.44c-.14-.17-.3-.33-.45-.49a3.543,3.543,0,0,1-.52-.6,1.727,1.727,0,0,1-.24-.86.9.9,0,0,1,.33-.76A.49.49,0,0,0,8.94.37.491.491,0,0,0,8.53.15a.479.479,0,0,0-.28.08A7.836,7.836,0,0,0,5.71,3.11a4.97,4.97,0,0,0,.63,5.4,13.984,13.984,0,0,0-.85,3.33h-.7a2.015,2.015,0,0,0-1.66,3.12,2,2,0,0,0,.01,3.77,1.95,1.95,0,0,0-.34,1.12,1.991,1.991,0,0,0,1.34,1.88,1.95,1.95,0,0,0-.34,1.12,1.993,1.993,0,0,0,1.39,1.9c.3,3.37.98,7.11,2.52,7.11s2.21-3.68,2.52-7.02h.58a1.941,1.941,0,0,0,.93-.23.01.01,0,0,1,.01-.01h.01l2.43-.4a6.489,6.489,0,0,0,3.05-1.37h.01a.09.09,0,0,0,.05.01H30.57a1.5,1.5,0,0,0,1.5-1.5v-8A1.5,1.5,0,0,0,30.57,11.84ZM6.61,3.55A7.024,7.024,0,0,1,7.5,2.22a2.572,2.572,0,0,0,.37.99,4.434,4.434,0,0,0,.64.77,3.881,3.881,0,0,1,.39.42,2.318,2.318,0,0,1-.21,3.12c-.01,0-.07.08-.08.08l-.04.04c-.04.05-.11.13-.16.18H7.07c-.06-.08-.11-.15-.16-.23A3.955,3.955,0,0,1,6.61,3.55Zm.66,5.27h.88a13.172,13.172,0,0,1,.74,2.86.748.748,0,0,0-.04.16H6.5A14.448,14.448,0,0,1,7.27,8.82ZM4.79,12.84H8.8v2H4.79a1,1,0,0,1,0-2ZM2.8,16.83a.986.986,0,0,1,.99-.99H9.07a1.394,1.394,0,0,0,.1.16,2.627,2.627,0,0,0,.22.25,1.933,1.933,0,0,0,.52.38,1.566,1.566,0,0,0,.43.15.142.142,0,0,0,.06.02,1.753,1.753,0,0,0,.4.04v.01a.974.974,0,0,1-.36.76.451.451,0,0,1-.17.11.869.869,0,0,1-.32.11.615.615,0,0,1-.14.01H3.79A.99.99,0,0,1,2.8,16.83Zm1,3a.986.986,0,0,1,.99-.99H9.81a.44.44,0,0,1,.16.02.42.42,0,0,1,.21.06.677.677,0,0,1,.29.18.71.71,0,0,1,.19.23.94.94,0,0,1,.14.5v.02a.958.958,0,0,1-.22.62.345.345,0,0,1-.12.12.965.965,0,0,1-.41.22.22.22,0,0,1-.08.01.441.441,0,0,1-.16.02H4.79A.99.99,0,0,1,3.8,19.83ZM7.73,30.86c-.44-.14-1.16-2.25-1.53-6.02H9.23C8.86,28.61,8.15,30.72,7.73,30.86Zm4.07-8.01a.995.995,0,0,1-.99.99H5.79a1.107,1.107,0,0,1-.18-.02.961.961,0,0,1-.51-.26,1,1,0,0,1-.3-.73.957.957,0,0,1,.22-.62.932.932,0,0,1,.48-.32.709.709,0,0,1,.29-.05h5.02a.44.44,0,0,1,.16.02.98.98,0,0,1,.83.97Zm6.8-2.61a.448.448,0,0,0-.19-.05.5.5,0,0,0-.48.27,1.59,1.59,0,0,1-.13.22,1.98,1.98,0,0,1-.19.31c-.1.14-.2.28-.31.41a6.011,6.011,0,0,1-.5.51,5.571,5.571,0,0,1-2.77,1.3l-1.32.22a1.853,1.853,0,0,0,.09-.58v-.02a1.96,1.96,0,0,0-1.33-1.87,2.011,2.011,0,0,0,.33-1.11v-.02a1.987,1.987,0,0,0-.58-1.41l.01-.17a2,2,0,0,0,.57-1.4v-.02a1.958,1.958,0,0,0-.02-.25,2,2,0,0,0,1.02-1.74v-1.5a.5.5,0,0,0-1,0v1.5a.986.986,0,0,1-.38.78c-.01.01-.01.01-.02.01a.967.967,0,0,1-.49.2H10.9a.34.34,0,0,1-.1.01,1.007,1.007,0,0,1-.39-.08v-.01h-.02c-.02-.01-.03-.01-.05-.02v-.01a.557.557,0,0,1-.2-.14h-.01a.522.522,0,0,1-.1-.11.358.358,0,0,1-.08-.12c-.01-.01-.02-.01-.02-.02a.994.994,0,0,1-.13-.49v-2.5a1.386,1.386,0,0,1,.09-.5.075.075,0,0,1,.05.01c0-.03-.01-.07-.01-.1v-.01a1.526,1.526,0,0,1,1.33-.9h2a5.591,5.591,0,0,1,3.59,1.29,4.568,4.568,0,0,1,.45.43,4.463,4.463,0,0,1,.5.63,5.138,5.138,0,0,1,.62,1.24.459.459,0,0,0,.43.33.472.472,0,0,0,.2-.02.5.5,0,0,0,.32-.63,6.167,6.167,0,0,0-.6-1.27h4.16v9h-4.7a5.771,5.771,0,0,0,.59-.92A.5.5,0,0,0,18.6,20.24Zm12.47,1.1a.5.5,0,0,1-.5.5H23.93v-9h6.64a.5.5,0,0,1,.5.5Z"/></svg>