<svg xmlns="http://www.w3.org/2000/svg" enable-background="new 0 0 512 512" viewBox="0 0 512 512"><path fill="#efefef" d="M467.4,88.8v396.5c0,11.8-9.5,21.3-21.3,21.3H65.9c-11.8,0-21.3-9.5-21.3-21.3V88.8H467.4z"/><path d="M467.4,88.8v396.5c0,11.8-9.5,21.3-21.3,21.3h-32c11.8,0,21.3-9.5,21.3-21.3V88.8H467.4z" opacity=".15"/><path fill="#fb888b" d="M430.1,175.3v-38.5c0-5.9-4.8-10.7-10.7-10.7H248.1c-5.9,0-10.7,4.8-10.7,10.7v38.5c0,5.9,4.8,10.7,10.7,10.7h171.3C425.3,186,430.1,181.2,430.1,175.3z"/><path fill="#7bdd9d" d="M430.1,272.5V234c0-5.9-4.8-10.7-10.7-10.7H248.1c-5.9,0-10.7,4.8-10.7,10.7v38.5c0,5.9,4.8,10.7,10.7,10.7h171.3C425.3,283.1,430.1,278.4,430.1,272.5z"/><path fill="#a7b1b3" d="M189.4,126.1H92.6c-5.9,0-10.7,4.8-10.7,10.7v321.9c0,5.9,4.8,10.7,10.7,10.7h96.9c5.9,0,10.7-4.8,10.7-10.7V136.8C200.1,130.9,195.3,126.1,189.4,126.1z"/><path fill="#fff" d="M263.9 186h-15.8c-5.9 0-10.7-4.7-10.7-10.7v-38.5c0-5.9 4.8-10.7 10.7-10.7h15.8c-5.9 0-10.7 4.8-10.7 10.7v38.5C253.2 181.2 258 186 263.9 186zM263.9 283.1h-15.8c-5.9 0-10.7-4.8-10.7-10.7V234c0-5.9 4.8-10.7 10.7-10.7h15.8c-5.9 0-10.7 4.7-10.7 10.7v38.5C253.2 278.3 258 283.1 263.9 283.1zM108.3 469.3H92.6c-5.9 0-10.7-4.8-10.7-10.7V136.8c0-5.9 4.8-10.7 10.7-10.7h15.8c-5.9 0-10.7 4.8-10.7 10.7v321.9C97.7 464.5 102.4 469.3 108.3 469.3z" opacity=".5"/><path d="M419.4 126.1h-23.7c5.9 0 10.7 4.8 10.7 10.7v38.5c0 5.9-4.8 10.7-10.7 10.7h23.7c5.9 0 10.7-4.8 10.7-10.7v-38.5C430.1 130.9 425.3 126.1 419.4 126.1zM419.4 223.3h-23.7c5.9 0 10.7 4.8 10.7 10.7v38.5c0 5.9-4.8 10.7-10.7 10.7h23.7c5.9 0 10.7-4.8 10.7-10.7V234C430.1 228.1 425.3 223.3 419.4 223.3zM189.4 126.1h-23.7c5.9 0 10.7 4.8 10.7 10.7v321.9c0 5.9-4.8 10.7-10.7 10.7h23.7c5.9 0 10.7-4.8 10.7-10.7V136.8C200.1 130.9 195.3 126.1 189.4 126.1z" opacity=".15"/><path fill="#fddc8d" d="M467.4,88.8V26.7c0-11.8-9.6-21.3-21.3-21.3H65.9c-11.8,0-21.3,9.6-21.3,21.3v62.1H467.4z"/><path fill="#fff" d="M85.5,5c-11.7,0-21.3,9.5-21.3,21.3v62.1H44.6V26.3C44.6,14.6,54.2,5,65.9,5H85.5z" opacity=".5"/><path d="M467.4,26.7v62.1H440V26.7c0-11.8-9.5-21.3-21.3-21.3h27.4C457.9,5.3,467.4,14.9,467.4,26.7z" opacity=".15"/><path fill="#fff" d="M289.7 47.1L289.7 47.1c0 5.4 4.4 9.7 9.7 9.7h126.2c5.4 0 9.7-4.4 9.7-9.7v0c0-5.4-4.4-9.7-9.7-9.7H299.5C294.1 37.3 289.7 41.7 289.7 47.1zM100 47.1c0 6.5-5.2 11.7-11.7 11.7-6.5 0-11.7-5.3-11.7-11.7 0-6.5 5.3-11.7 11.7-11.7C94.8 35.3 100 40.6 100 47.1zM147 47.1c0 6.5-5.2 11.7-11.7 11.7-6.5 0-11.7-5.3-11.7-11.7 0-6.5 5.3-11.7 11.7-11.7C141.8 35.3 147 40.6 147 47.1zM193.9 47.1c0 6.5-5.2 11.7-11.7 11.7-6.5 0-11.7-5.3-11.7-11.7 0-6.5 5.3-11.7 11.7-11.7C188.7 35.3 193.9 40.6 193.9 47.1z"/><path fill="#a5e0fa" d="M428.2,331.1v127.5c0,5.9-4.8,10.7-10.7,10.7H248.1c-5.9,0-10.7-4.8-10.7-10.7V331.1c0-5.9,4.8-10.7,10.7-10.7h169.4C423.4,320.5,428.2,325.3,428.2,331.1z"/><path d="M428.2,331.1v127.5c0,5.9-4.8,10.7-10.7,10.7h-25.7c5.9,0,10.7-4.8,10.7-10.7V331.1c0-5.9-4.8-10.7-10.7-10.7h25.7C423.4,320.5,428.2,325.3,428.2,331.1z" opacity=".15"/><path fill="#fff" d="M274.6,469.3h-26.5c-5.9,0-10.7-4.8-10.7-10.7V331.1c0-5.9,4.8-10.7,10.7-10.7h26.5c-5.9,0-10.7,4.8-10.7,10.7v127.5C263.9,464.5,268.7,469.3,274.6,469.3z" opacity=".5"/><path d="M472.8,26.7c0-14.7-12-26.7-26.7-26.7H65.9C51.2,0,39.2,12,39.2,26.7c0,38.7,0,457.3,0,458.7c0,14.7,12,26.7,26.7,26.7h380.2c14.7,0,26.7-12,26.7-26.7C472.8,446.6,472.8,88.8,472.8,26.7z M65.9,10.7h380.2c8.8,0,16,7.2,16,16v56.8H49.9V26.7C49.9,17.8,57.1,10.7,65.9,10.7z M446.1,501.3H65.9c-8.8,0-16-7.2-16-16V94.2h412.2v391.2C462.1,494.2,454.9,501.3,446.1,501.3z"/><path d="M419.4 120.8H248.1c-8.8 0-16 7.2-16 16v38.5c0 8.8 7.2 16 16 16h171.3c8.8 0 16-7.2 16-16v-38.5C435.4 128 428.3 120.8 419.4 120.8zM424.8 175.3c0 2.9-2.4 5.3-5.3 5.3H248.1c-2.9 0-5.3-2.4-5.3-5.3v-38.5c0-2.9 2.4-5.3 5.3-5.3h171.3c2.9 0 5.3 2.4 5.3 5.3V175.3zM419.4 218H248.1c-8.8 0-16 7.2-16 16v38.5c0 8.8 7.2 16 16 16h171.3c8.8 0 16-7.2 16-16V234C435.4 225.1 428.3 218 419.4 218zM424.8 272.5c0 2.9-2.4 5.3-5.3 5.3H248.1c-2.9 0-5.3-2.4-5.3-5.3V234c0-2.9 2.4-5.3 5.3-5.3h171.3c2.9 0 5.3 2.4 5.3 5.3V272.5zM189.4 120.8H92.6c-8.8 0-16 7.2-16 16v321.9c0 8.8 7.2 16 16 16h96.9c8.8 0 16-7.2 16-16V136.8C205.4 128 198.3 120.8 189.4 120.8zM194.8 458.7c0 2.9-2.4 5.3-5.3 5.3H92.6c-2.9 0-5.3-2.4-5.3-5.3V136.8c0-2.9 2.4-5.3 5.3-5.3h96.9c2.9 0 5.3 2.4 5.3 5.3V458.7zM299.5 62.2h126.2c8.3 0 15.1-6.8 15.1-15.1S434 32 425.7 32H299.5c-8.3 0-15.1 6.8-15.1 15.1S291.2 62.2 299.5 62.2zM299.5 42.7h126.2c2.4 0 4.4 2 4.4 4.4 0 2.4-2 4.4-4.4 4.4H299.5c-2.4 0-4.4-2-4.4-4.4C295.1 44.6 297.1 42.7 299.5 42.7zM88.3 64.1c9.4 0 17.1-7.7 17.1-17.1S97.7 30 88.3 30s-17.1 7.7-17.1 17.1S78.9 64.1 88.3 64.1zM88.3 40.7c3.6 0 6.4 2.8 6.4 6.4 0 3.5-2.9 6.4-6.4 6.4s-6.4-2.9-6.4-6.4S84.8 40.7 88.3 40.7zM135.2 64.1c9.4 0 17.1-7.7 17.1-17.1S144.7 30 135.2 30c-9.4 0-17.1 7.7-17.1 17.1S125.8 64.1 135.2 64.1zM135.2 40.7c3.6 0 6.4 2.8 6.4 6.4 0 3.5-2.9 6.4-6.4 6.4s-6.4-2.9-6.4-6.4S131.7 40.7 135.2 40.7zM182.2 64.1c9.4 0 17.1-7.7 17.1-17.1S191.6 30 182.2 30s-17.1 7.7-17.1 17.1S172.8 64.1 182.2 64.1zM182.2 40.7c3.6 0 6.4 2.8 6.4 6.4 0 3.5-2.9 6.4-6.4 6.4s-6.4-2.9-6.4-6.4S178.6 40.7 182.2 40.7zM417.5 315.1H248.1c-8.8 0-16 7.2-16 16v127.5c0 8.8 7.2 16 16 16h169.4c8.8 0 16-7.2 16-16V331.1C433.5 322.3 426.3 315.1 417.5 315.1zM422.8 458.7c0 2.9-2.4 5.3-5.3 5.3H248.1c-2.9 0-5.3-2.4-5.3-5.3V331.1c0-2.9 2.4-5.3 5.3-5.3h169.4c2.9 0 5.3 2.4 5.3 5.3V458.7z"/></svg>