<svg xmlns="http://www.w3.org/2000/svg" width="48" height="48"><g color="#000"><path fill="#e26600" d="M-510.028 692.19c-13.252 0-24 10.749-24 24 0 13.253 10.748 24 24 24s24-10.747 24-24c0-13.251-10.748-24-24-24zm0 1.5c12.424 0 22.5 10.077 22.5 22.5 0 12.424-10.076 22.5-22.5 22.5s-22.5-10.076-22.5-22.5c0-12.423 10.076-22.5 22.5-22.5z" font-family="sans-serif" font-weight="400" overflow="visible" style="line-height:normal;text-indent:0;text-align:start;text-decoration-line:none;text-decoration-style:solid;text-decoration-color:#000;text-transform:none;block-progression:tb;white-space:normal;isolation:auto;mix-blend-mode:normal;solid-color:#000;solid-opacity:1" transform="translate(534.028 -692.19)"/><path fill="#e26600" d="M-510.028 696.44c-10.905 0-19.75 8.846-19.75 19.75 0 10.906 8.845 19.75 19.75 19.75s19.75-8.844 19.75-19.75c0-10.904-8.845-19.75-19.75-19.75z" font-family="sans-serif" font-weight="400" overflow="visible" style="line-height:normal;text-indent:0;text-align:start;text-decoration-line:none;text-decoration-style:solid;text-decoration-color:#000;text-transform:none;block-progression:tb;white-space:normal;isolation:auto;mix-blend-mode:normal;solid-color:#000;solid-opacity:1" transform="translate(534.028 -692.19)"/><path fill="#d40" d="M-510.028 696.44c-10.905 0-19.75 8.846-19.75 19.75a19.685 19.685 0 0 0 5.798 13.973l27.925-27.924a19.685 19.685 0 0 0-13.973-5.798z" overflow="visible" style="isolation:auto;mix-blend-mode:normal;solid-color:#000;solid-opacity:1" transform="translate(534.028 -692.19)"/><path fill="#fff" style="line-height:normal;text-indent:0;text-align:start;text-decoration-line:none;text-decoration-style:solid;text-decoration-color:#000;text-transform:none;block-progression:tb;white-space:normal;isolation:auto;mix-blend-mode:normal;solid-color:#000;solid-opacity:1" d="M24 1016.362c-2.096 0-3.805 1.63-3.969 3.686-.351.123-.696.26-1.031.414v-.317a.5.5 0 0 0-.72-.447 12.99 12.99 0 0 0-4.159 3.223.5.5 0 0 0-.121.324v1.478l-.092.143a11.951 11.951 0 0 0-1.908 6.496h-1.5a.5.5 0 0 0-.5.5v3a.5.5 0 0 0 .5.5h27a.5.5 0 0 0 .5-.5v-3a.5.5 0 0 0-.5-.5H36c0-2.391-.7-4.624-1.908-6.496a.502.502 0 0 0-.092-.107v-1.498a.5.5 0 0 0-.12-.325 12.998 12.998 0 0 0-4.16-3.23.496.496 0 0 0-.72.445v.308c-.336-.154-.68-.29-1.031-.414-.164-2.054-1.873-3.685-3.969-3.685zm0 1.002c1.663 0 3 1.337 3 3s-1.337 3-3 3-3-1.337-3-3 1.337-3 3-3zm-.451 1.06c-.045 0-.09.01-.133.021a2.003 2.003 0 0 0-1.416 1.913c0 .723.388 1.364.969 1.714.581.392 1.133-.524.515-.855a.998.998 0 0 1-.484-.86c0-.455.299-.83.707-.955.57-.162.434-1.005-.158-.98zm4.377 2.674c.368.142.726.302 1.074.48v6.286c-.01.676 1.01.676 1 0v-6.7c.34.201.673.412 1 .632v6.062c-.01.676 1.01.676 1 0v-5.312c.354.293.695.602 1 .95v4.368c-.01.676 1.01.676 1 0v-1.09c.642 1.396 1 2.95 1 4.59h-1.5c-.676-.01-.676 1.01 0 1H37v2H11v-2h3.5c.676.01.676-1.01 0-1H13c0-1.638.359-3.191 1-4.586v1.086c-.01.676 1.01.676 1 0v-4.383a8.65 8.65 0 0 1 1-.95v5.327c-.01.676 1.01.676 1 0v-6.074c.327-.219.66-.429 1-.629v6.709c-.01.676 1.01.676 1 0v-6.285c.348-.179.707-.338 1.076-.479.349 1.852 1.973 3.264 3.924 3.264 1.951 0 3.578-1.413 3.926-3.266zm-9.477 10.266c-.666.034-.616 1.034.051 1h11c.676.01.676-1.01 0-1H18.45z" font-family="sans-serif" font-weight="400" overflow="visible" transform="translate(0 -1004.362)"/></g></svg>