<svg xmlns="http://www.w3.org/2000/svg" viewBox="0 0 512 512"><linearGradient id="a" x1="85.926" x2="485.527" y1="493.104" y2="93.504" gradientUnits="userSpaceOnUse"><stop offset="0" stop-color="#fcc60e"/><stop offset="1" stop-color="#e92e29"/></linearGradient><path fill="url(#a)" d="M142.76 270.872c-42.553 0-77.172 34.62-77.172 77.173 0 42.553 34.619 77.172 77.172 77.172 42.554 0 77.173-34.62 77.173-77.172 0-42.554-34.62-77.173-77.173-77.173zm0 138.345c-33.73 0-61.172-27.442-61.172-61.172 0-33.731 27.441-61.173 61.172-61.173s61.173 27.442 61.173 61.173c0 33.73-27.443 61.172-61.173 61.172zm137.635-86.877-18.477-7.112a122.756 122.756 0 0 0-11.702-28.226l8.042-18.105a7.999 7.999 0 0 0-1.655-8.904l-25.792-25.791a7.999 7.999 0 0 0-8.903-1.655l-18.113 8.044a122.72 122.72 0 0 0-28.216-11.699l-7.115-18.482a8 8 0 0 0-7.466-5.126h-36.475a8 8 0 0 0-7.466 5.126l-7.114 18.482a122.747 122.747 0 0 0-28.217 11.699l-18.113-8.044a7.998 7.998 0 0 0-8.904 1.654l-25.791 25.792a8 8 0 0 0-1.654 8.904l8.043 18.11a122.695 122.695 0 0 0-11.699 28.22l-18.48 7.113A8 8 0 0 0 0 329.807v36.475a8 8 0 0 0 5.126 7.466l18.477 7.112a122.875 122.875 0 0 0 11.701 28.226l-8.041 18.106a8 8 0 0 0 1.654 8.904l25.792 25.792a8 8 0 0 0 8.904 1.655l18.113-8.044a122.74 122.74 0 0 0 28.216 11.699l7.115 18.482a8 8 0 0 0 7.466 5.126h36.475a8 8 0 0 0 7.466-5.126l7.112-18.477a122.717 122.717 0 0 0 28.226-11.701l18.105 8.041a8 8 0 0 0 8.904-1.654l25.792-25.792a8 8 0 0 0 1.654-8.904l-8.045-18.113a122.728 122.728 0 0 0 11.699-28.217l18.482-7.114a8 8 0 0 0 5.126-7.466v-36.475a7.999 7.999 0 0 0-5.124-7.468zm-10.874 38.449-17.206 6.623a7.998 7.998 0 0 0-4.908 5.614 106.824 106.824 0 0 1-12.992 31.333 8.004 8.004 0 0 0-.499 7.442l7.49 16.864-18.023 18.024-16.857-7.487a7.999 7.999 0 0 0-7.442.5 106.852 106.852 0 0 1-31.342 12.993 8 8 0 0 0-5.614 4.909l-6.621 17.2h-25.489l-6.623-17.206a8.002 8.002 0 0 0-5.613-4.909 106.842 106.842 0 0 1-31.335-12.992 8.002 8.002 0 0 0-7.441-.499l-16.864 7.49-18.023-18.023 7.486-16.857a8.004 8.004 0 0 0-.499-7.442 106.91 106.91 0 0 1-12.994-31.344 7.997 7.997 0 0 0-4.908-5.613L16 360.789V335.3l17.204-6.622a8 8 0 0 0 4.909-5.614 106.836 106.836 0 0 1 12.99-31.337 8.001 8.001 0 0 0 .5-7.442l-7.488-16.861L62.137 249.4l16.864 7.49a7.997 7.997 0 0 0 7.441-.499 106.85 106.85 0 0 1 31.336-12.991 8 8 0 0 0 5.613-4.909l6.623-17.205h25.489l6.623 17.206a8.002 8.002 0 0 0 5.613 4.909 106.845 106.845 0 0 1 31.335 12.991 8.003 8.003 0 0 0 7.441.5l16.864-7.49 18.023 18.023-7.487 16.856a8.003 8.003 0 0 0 .5 7.443 106.894 106.894 0 0 1 12.994 31.343 7.996 7.996 0 0 0 4.908 5.614l17.2 6.621v25.487zm237.352-69.9-10.992-4.231a83.962 83.962 0 0 0-6.973-16.82l4.785-10.771a8 8 0 0 0-1.655-8.905l-17.101-17.1a7.998 7.998 0 0 0-8.903-1.654l-10.776 4.787a84.003 84.003 0 0 0-16.813-6.971l-4.233-10.997a8 8 0 0 0-7.466-5.126h-24.183a8 8 0 0 0-7.466 5.126l-4.233 10.997a84.061 84.061 0 0 0-16.813 6.971l-10.776-4.787a8 8 0 0 0-8.904 1.655l-17.1 17.1a8 8 0 0 0-1.654 8.904l4.786 10.775a84.037 84.037 0 0 0-6.973 16.815l-10.994 4.232a8.001 8.001 0 0 0-5.126 7.466v24.183a8 8 0 0 0 5.126 7.466l10.992 4.231a83.974 83.974 0 0 0 6.973 16.819l-4.784 10.771a8 8 0 0 0 1.654 8.904l17.101 17.1a7.997 7.997 0 0 0 8.904 1.654l10.776-4.786a84.086 84.086 0 0 0 16.813 6.971l4.232 10.996a8 8 0 0 0 7.466 5.126h24.183a8 8 0 0 0 7.466-5.126l4.231-10.992a83.94 83.94 0 0 0 16.819-6.973l10.772 4.784a7.999 7.999 0 0 0 8.904-1.654l17.1-17.101a8 8 0 0 0 1.654-8.904l-4.787-10.776a84.1 84.1 0 0 0 6.972-16.813l10.996-4.233a8 8 0 0 0 5.126-7.466v-24.183a7.997 7.997 0 0 0-5.126-7.464zM496 317.045l-9.68 3.726a7.997 7.997 0 0 0-4.908 5.613 68.19 68.19 0 0 1-8.286 19.985 8.001 8.001 0 0 0-.5 7.442l4.215 9.489-9.331 9.332-9.485-4.212a7.996 7.996 0 0 0-7.442.5 68.161 68.161 0 0 1-19.99 8.287 8 8 0 0 0-5.614 4.909l-3.725 9.676h-13.196l-3.727-9.68a8.002 8.002 0 0 0-5.613-4.909 68.138 68.138 0 0 1-19.985-8.286 7.997 7.997 0 0 0-7.441-.499l-9.489 4.214-9.332-9.332 4.213-9.484a8 8 0 0 0-.5-7.443 68.146 68.146 0 0 1-8.288-19.99 7.995 7.995 0 0 0-4.908-5.613l-9.676-3.725v-13.197l9.678-3.726a7.995 7.995 0 0 0 4.908-5.613 68.166 68.166 0 0 1 8.287-19.987 8.001 8.001 0 0 0 .5-7.442l-4.214-9.488 9.331-9.332 9.489 4.214a8.002 8.002 0 0 0 7.441-.5 68.176 68.176 0 0 1 19.986-8.286 8 8 0 0 0 5.613-4.909l3.727-9.68h13.196l3.727 9.68a8.002 8.002 0 0 0 5.613 4.909 68.132 68.132 0 0 1 19.985 8.286 8.002 8.002 0 0 0 7.441.5l9.489-4.215 9.332 9.332-4.213 9.484a8 8 0 0 0 .5 7.442 68.123 68.123 0 0 1 8.286 19.99 8 8 0 0 0 4.91 5.615l9.676 3.725v13.198zm-81.346-56.773c-27.666 0-50.175 22.508-50.175 50.175 0 27.666 22.509 50.174 50.175 50.174s50.175-22.508 50.175-50.174c0-27.667-22.509-50.175-50.175-50.175zm0 84.349c-18.844 0-34.175-15.331-34.175-34.174 0-18.844 15.331-34.175 34.175-34.175s34.175 15.331 34.175 34.175c0 18.844-15.331 34.174-34.175 34.174zM293.33 68.366c-27.666 0-50.175 22.508-50.175 50.175 0 27.666 22.509 50.174 50.175 50.174s50.175-22.508 50.175-50.174-22.509-50.175-50.175-50.175zm0 84.349c-18.844 0-34.175-15.331-34.175-34.174 0-18.844 15.331-34.175 34.175-34.175s34.175 15.331 34.175 34.175c0 18.844-15.331 34.174-34.175 34.174zm51.38 44.864a8.002 8.002 0 0 0 8.904-1.654l17.101-17.101a8 8 0 0 0 1.654-8.904l-4.787-10.776a84.1 84.1 0 0 0 6.972-16.813l10.996-4.233a8 8 0 0 0 5.126-7.466v-24.183a8 8 0 0 0-5.127-7.466l-10.992-4.231a83.962 83.962 0 0 0-6.973-16.82l4.785-10.771a7.999 7.999 0 0 0-1.655-8.904l-17.101-17.1a7.999 7.999 0 0 0-8.903-1.655l-10.776 4.787a84.041 84.041 0 0 0-16.813-6.971l-4.232-10.996a8 8 0 0 0-7.466-5.126H281.24a8 8 0 0 0-7.466 5.126l-4.232 10.996a84.036 84.036 0 0 0-16.814 6.971l-10.776-4.787a8 8 0 0 0-8.904 1.655l-17.1 17.1a8 8 0 0 0-1.654 8.904l4.786 10.775a84.037 84.037 0 0 0-6.973 16.815l-10.994 4.232a8.001 8.001 0 0 0-5.126 7.466v24.183a8 8 0 0 0 5.126 7.466l10.992 4.231a83.974 83.974 0 0 0 6.973 16.819l-4.784 10.771a8 8 0 0 0 1.654 8.904l17.101 17.1a7.994 7.994 0 0 0 8.904 1.654l10.776-4.786a84.086 84.086 0 0 0 16.813 6.971l4.232 10.996a8 8 0 0 0 7.466 5.126h24.183a8 8 0 0 0 7.466-5.126l4.231-10.992a83.93 83.93 0 0 0 16.819-6.973l10.771 4.786zm-15.452-20.565a68.13 68.13 0 0 1-19.99 8.287 8 8 0 0 0-5.614 4.909l-3.725 9.676h-13.196l-3.727-9.68a8.002 8.002 0 0 0-5.613-4.909 68.126 68.126 0 0 1-19.984-8.286 8.001 8.001 0 0 0-7.442-.499l-9.489 4.214-9.332-9.332 4.213-9.484a8 8 0 0 0-.5-7.443 68.146 68.146 0 0 1-8.288-19.99 7.995 7.995 0 0 0-4.908-5.613l-9.676-3.725v-13.197l9.678-3.726a7.995 7.995 0 0 0 4.908-5.613 68.166 68.166 0 0 1 8.287-19.987 8.001 8.001 0 0 0 .5-7.442l-4.214-9.488 9.331-9.332 9.489 4.214a8.005 8.005 0 0 0 7.441-.499 68.145 68.145 0 0 1 19.985-8.286 8 8 0 0 0 5.614-4.909l3.727-9.68h13.196l3.726 9.679a8 8 0 0 0 5.614 4.909 68.134 68.134 0 0 1 19.985 8.286 8.002 8.002 0 0 0 7.441.499l9.489-4.215 9.332 9.332-4.213 9.484a8.003 8.003 0 0 0 .5 7.443 68.111 68.111 0 0 1 8.286 19.99 8 8 0 0 0 4.91 5.615l9.676 3.725v13.197l-9.68 3.726a7.997 7.997 0 0 0-4.908 5.613 68.19 68.19 0 0 1-8.286 19.985 8.001 8.001 0 0 0-.5 7.442l4.215 9.489-9.332 9.332-9.484-4.212a8.005 8.005 0 0 0-7.442.501zM7.854 200.611a8 8 0 0 1 .947-11.274c30.034-25.376 66.817-41.639 105.545-47.006l-16.908-8.98a8.002 8.002 0 0 1-3.313-10.818 8.003 8.003 0 0 1 10.818-3.313l41.569 22.078a8 8 0 0 1 1.375 13.205l-32.685 27.3a7.965 7.965 0 0 1-5.124 1.86 7.98 7.98 0 0 1-6.144-2.872 8 8 0 0 1 1.012-11.269l13.972-11.67c-36.616 4.605-71.458 19.765-99.792 43.705a7.97 7.97 0 0 1-5.159 1.889 7.973 7.973 0 0 1-6.113-2.835zM402.739 91.173l8.907-41.644a8.003 8.003 0 0 1 12.324-4.941l38.916 26.476A7.999 7.999 0 0 1 465 82.178a7.997 7.997 0 0 1-11.114 2.114l-16.574-11.276c4.628 14.608 6.979 29.839 6.979 45.524 0 20.892-4.191 41.125-12.456 60.137a8.004 8.004 0 0 1-7.341 4.813 7.976 7.976 0 0 1-3.186-.666 7.999 7.999 0 0 1-4.147-10.526c7.386-16.987 11.13-35.074 11.13-53.758 0-14.095-2.121-27.776-6.297-40.891l-3.608 16.87a8.004 8.004 0 0 1-9.496 6.15 8 8 0 0 1-6.151-9.496zM503.95 427.665a8.003 8.003 0 0 1 .092 7.521l-21.613 41.812a7.999 7.999 0 0 1-10.78 3.433 8 8 0 0 1-3.433-10.78l8.951-17.318a148.502 148.502 0 0 1-33.148 10.841 149.612 149.612 0 0 1-29.605 2.972c-28.226 0-55.906-8.078-80.125-23.684a8 8 0 0 1 8.666-13.45c29.142 18.777 63.907 25.338 97.898 18.478 10.761-2.172 21.058-5.604 30.793-10.238l-17.845-1.618a8 8 0 0 1-7.246-8.689c.399-4.399 4.278-7.654 8.689-7.245l42.412 3.844a8.002 8.002 0 0 1 6.294 4.121z"/></svg>