<svg xmlns="http://www.w3.org/2000/svg" viewBox="0 0 64 64"><g data-name="Layer 2"><path fill="#90a4ae" d="M61,59.7l-8-25a1.2,1.2,0,0,0-1-.7H12a1.2,1.2,0,0,0-1,.7l-8,25A1,1,0,0,0,4,61H60A1,1,0,0,0,61,59.7Z"/><path fill="#5c747c" d="M61,59.7l-8-25a1.2,1.2,0,0,0-1-.7H47l6.1,19.1A3,3,0,0,1,50.3,57H3.9L3,59.7A1,1,0,0,0,4,61H60A1,1,0,0,0,61,59.7Z"/><path fill="#d50000" d="M50,55H15a.9.9,0,0,1-.9-1.3l2-6A1,1,0,0,1,17,47H39v2H17.7l-1.3,4H48.6L44.1,40.3l1.8-.6,5,14A.9.9,0,0,1,50,55Z"/><rect width="2" height="7.43" x="31" y="40.6" fill="#d50000"/><rect width="2" height="4.18" x="25.9" y="39.6" fill="#d50000" transform="rotate(-50.2 26.849 41.603)"/><rect width="2" height="4.23" x="24.1" y="42.5" fill="#d50000" transform="rotate(-75.7 25.17 44.635)"/><rect width="4.2" height="2" x="35" y="40.7" fill="#d50000" transform="rotate(-39.8 37.083 41.7)"/><rect width="4.2" height="2" x="36.7" y="43.6" fill="#d50000" transform="rotate(-14.3 38.945 44.562)"/><path fill="#fbc02d" d="M36,28H28a.9.9,0,0,0-1,1v7.6a1.1,1.1,0,0,0,.3.7l4,4.4a1,1,0,0,0,1.4,0l4-4.4a1.1,1.1,0,0,0,.3-.7V29A.9.9,0,0,0,36,28Z"/><path fill="#ff8f00" d="M36,28H28a.9.9,0,0,0-1,1v4h4a2.9,2.9,0,0,1,3,3v4.3l2.7-3a1.1,1.1,0,0,0,.3-.7V29A.9.9,0,0,0,36,28Z"/><rect width="18" height="27" x="23" y="3" fill="#ef6c00" rx="1"/><path fill="#e65100" d="M40,3H24a.9.9,0,0,0-1,1V7H33a2.9,2.9,0,0,1,3,3V30h4a.9.9,0,0,0,1-1V4A.9.9,0,0,0,40,3Z"/></g></svg>