<svg xmlns="http://www.w3.org/2000/svg" enable-background="new 0 0 64 64" viewBox="0 0 64 64"><path d="M14.25 5.64c-.57 0-1.03.46-1.03 1.03v5.92c-.64.35-1.08 1.01-1.08 1.78v6.01h4.23v-6.01c0-.77-.44-1.43-1.09-1.78V6.67C15.28 6.11 14.82 5.64 14.25 5.64zM4.23 14.38c0-.77-.44-1.43-1.09-1.78V6.67c0-.57-.46-1.03-1.03-1.03-.57 0-1.03.46-1.03 1.03v5.92C.44 12.95 0 13.61 0 14.38v6.01h4.23V14.38zM60.91 1.28H28.57c-1.71 0-3.09 1.38-3.09 3.09v13.11H64V4.37C64 2.66 62.61 1.28 60.91 1.28zM60.91 14.38c0 .58-.46 1.03-1.03 1.03-.58 0-1.03-.45-1.03-1.03V8.47c0-1.13-.93-2.06-2.06-2.06H32.68c-1.14 0-2.06.93-2.06 2.06v5.91c0 .58-.46 1.03-1.03 1.03s-1.03-.45-1.03-1.03V8.47c0-2.26 1.84-4.12 4.12-4.12H56.8c2.26 0 4.12 1.85 4.12 4.12V14.38zM25.48 49.79c0 1.7 1.38 3.09 3.09 3.09h2.35v4.97c-.56 1.66-2.15 2.8-3.91 2.8h-3.75H19.4c-2.27 0-4.12-1.85-4.12-4.12V39.66c.64-.32 1.09-.98 1.09-1.74V22.45h-4.23v15.46c0 .76.44 1.42 1.08 1.74v16.89c0 1.58.6 3.02 1.59 4.12H7.26c-2.27 0-4.12-1.85-4.12-4.12V39.66c.64-.32 1.09-.98 1.09-1.74V22.45H0v15.46c0 .76.44 1.42 1.08 1.74v16.89c0 3.4 2.77 6.17 6.17 6.17H19.4h3.86H27c2.71 0 5.14-1.81 5.92-4.41.03-.1.04-.2.04-.3v-5.13h27.94c1.7 0 3.09-1.39 3.09-3.09V19.54H25.48V49.79zM57.7 22.66h2.17c.58 0 1.03.46 1.03 1.03s-.45 1.03-1.03 1.03H57.7c-.58 0-1.03-.46-1.03-1.03S57.13 22.66 57.7 22.66zM57.7 25.94h2.17c.58 0 1.03.45 1.03 1.03 0 .57-.45 1.03-1.03 1.03H57.7c-.58 0-1.03-.46-1.03-1.03C56.67 26.4 57.13 25.94 57.7 25.94zM57.7 29.22h2.17c.58 0 1.03.46 1.03 1.03 0 .58-.45 1.03-1.03 1.03H57.7c-.58 0-1.03-.45-1.03-1.03C56.67 29.68 57.13 29.22 57.7 29.22zM57.7 32.5h2.17c.58 0 1.03.46 1.03 1.03s-.45 1.03-1.03 1.03H57.7c-.58 0-1.03-.46-1.03-1.03S57.13 32.5 57.7 32.5zM35.39 36.2c0-4.03 2.57-7.46 6.16-8.77l-5.37-2.72h-6.58c-.58 0-1.03-.46-1.03-1.03s.45-1.03 1.03-1.03h6.82c.16 0 .32.04.46.11l8.13 4.09c5.03.14 9.07 4.27 9.07 9.33 0 1.42-.33 2.76-.9 3.96l2.61 4.72h5.18c.57 0 1.03.46 1.03 1.03 0 .58-.46 1.03-1.03 1.03h-5.78c-.37 0-.71-.2-.9-.52l-2.37-4.26c-1.71 2.07-4.3 3.4-7.19 3.4-2.1 0-4.03-.71-5.6-1.88l-4.02 4.34c-.19.22-.46.33-.75.33h-4.77c-.58 0-1.03-.45-1.03-1.03 0-.57.45-1.03 1.03-1.03h4.32l3.72-4.01C36.24 40.64 35.39 38.52 35.39 36.2z"/><path d="M44.74,43.5c3.66,0,6.7-2.73,7.2-6.27h-4.82c-0.57,0-1.03-0.45-1.03-1.03c0-0.57,0.46-1.03,1.03-1.03h4.82
		c-0.5-3.53-3.54-6.26-7.2-6.26c-4.02,0-7.29,3.27-7.29,7.28C37.44,40.23,40.72,43.5,44.74,43.5z"/></svg>