<svg xmlns="http://www.w3.org/2000/svg" viewBox="0 0 64 64"><path fill="#bddbff" d="M56.41 27.59A1.955 1.955 0 0 1 57 29a2.006 2.006 0 0 1-2 2H41a2.015 2.015 0 0 1-2-2 2.006 2.006 0 0 1 2-2h14a1.955 1.955 0 0 1 1.41.59Z"/><path fill="#bddbff" d="M55 27h-5v-5.91a5.832 5.832 0 0 1 3.24 1.67A5.944 5.944 0 0 1 55 27Z"/><circle cx="48" cy="48" r="5" fill="#bddbff"/><path fill="#bddbff" d="M50 21.09V27h-4v-7a1 1 0 0 1 1-1h2a1 1 0 0 1 1 1zm-4 0V27h-5a5.99 5.99 0 0 1 5-5.91zm-3 35.55V61h-8V50l3.32.47a9.8 9.8 0 0 0 1.09 2.62l-2.02 2.69 2.83 2.83 2.69-2.02a.405.405 0 0 0 .09.05z"/><path fill="#bddbff" d="M35 46v15H24l2-4-1.9-16.1.9-.9 3 2 2.79-5.58 4.42 1.66a11.675 11.675 0 0 1 2.81 1.51l-.63.63 2.02 2.69a9.8 9.8 0 0 0-1.09 2.62zm0-37v5l-2 2h-1.53a4.02 4.02 0 0 1-3.58-2.21L27 12l-2.26 1.81A9.993 9.993 0 0 1 18.49 16H13l-5-3 3-4-4-6h22a6 6 0 0 1 6 6z"/><path fill="#bddbff" d="M30.79 36.42 28 42l-3-2-1-3 3-2 3.79 1.42zM24.1 40.9 26 57l-2 4h-2l-2-4 1.9-16.1L23 42l1.1-1.1z"/><path fill="#bddbff" d="m24 37 1 3-.9.9L23 42l-1.1-1.1-.9-.9 1-3h2z"/><path fill="#bddbff" d="m22 37-1 3-3 2-2.79-5.58L19 35l3 2z"/><path fill="#bddbff" d="M11 61H3V49.32a12 12 0 0 1 7.79-11.24l4.42-1.66L18 42l3-2 .9.9L20 57l2 4Z"/><path fill="#3d9ae2" d="M18 19h2v2h-2zM26 19h2v2h-2zM28 24h-2a3 3 0 0 1-6 0h-2a5 5 0 0 0 10 0Z"/><path fill="#3d9ae2" d="m61.14 45.01-2.68-.38a10.291 10.291 0 0 0-.68-1.64l1.63-2.17a.994.994 0 0 0-.1-1.31l-2.82-2.82a.994.994 0 0 0-1.31-.1l-2.17 1.63a10.291 10.291 0 0 0-1.64-.68l-.38-2.68A1 1 0 0 0 50 34h-4a1 1 0 0 0-.99.86l-.38 2.68a10.291 10.291 0 0 0-1.64.68l-2.17-1.63a.994.994 0 0 0-1.31.1l-1.63 1.63a13.318 13.318 0 0 0-2.32-1.18L28 34.31v-1.52a11.023 11.023 0 0 0 5.96-8.95A3.642 3.642 0 0 0 35 24a4 4 0 0 0 0-8 3.573 3.573 0 0 0-.65.06l1.36-1.35A1.033 1.033 0 0 0 36 14V9a7.008 7.008 0 0 0-7-7H7a.984.984 0 0 0-.88.53.963.963 0 0 0 .05 1.02l3.61 5.42L7.2 12.4a1 1 0 0 0 .29 1.46l3.58 2.15c-.03 0-.05-.01-.07-.01a4 4 0 0 0 0 8 3.642 3.642 0 0 0 1.04-.16A11.023 11.023 0 0 0 18 32.79v1.52l-7.56 2.83A13.075 13.075 0 0 0 2 49.32V61a1 1 0 0 0 1 1h40a1 1 0 0 0 1-1v-2.77c.21.08.41.16.63.23l.38 2.68A1 1 0 0 0 46 62h4a1 1 0 0 0 .99-.86l.38-2.68a10.291 10.291 0 0 0 1.64-.68l2.17 1.63a1.006 1.006 0 0 0 1.31-.1l2.82-2.82a.994.994 0 0 0 .1-1.31l-1.63-2.17a10.291 10.291 0 0 0 .68-1.64l2.68-.38A1 1 0 0 0 62 50v-4a1 1 0 0 0-.86-.99ZM29.4 36.97l-1.79 3.57-1.77-1.18-.65-1.95 1.94-1.29ZM23.7 36h-1.4L20 34.46v-.89a10.68 10.68 0 0 0 6 0v.89Zm.16 3.73-.86.86-.86-.86.58-1.73h.56ZM35 18a2 2 0 1 1-1 3.73v-3.46a2.023 2.023 0 0 1 1-.27Zm-23 3.73a2 2 0 1 1 0-3.46Zm-2.53-9.02L11.8 9.6a.992.992 0 0 0 .03-1.15L8.87 4H29a5 5 0 0 1 5 5v4.59L32.59 15h-1.12a2.988 2.988 0 0 1-2.68-1.66l-.9-1.79a.994.994 0 0 0-.68-.53A1.492 1.492 0 0 0 27 11a.977.977 0 0 0-.62.22l-2.27 1.81A9.027 9.027 0 0 1 18.49 15h-5.21ZM14 23v-6h4.49a11.051 11.051 0 0 0 6.87-2.41l1.3-1.04.34.69A4.979 4.979 0 0 0 31.47 17H32v6a9 9 0 0 1-18 0Zm4.87 13.12 1.94 1.29-.65 1.95-1.77 1.18-1.79-3.57Zm.24 21.33L20.38 60H12V45h-2v15H4V49.32a11.051 11.051 0 0 1 7.14-10.3l3.58-1.35 2.39 4.78a1.024 1.024 0 0 0 .63.52A1.153 1.153 0 0 0 18 43a.967.967 0 0 0 .55-.17l2.3-1.52-1.84 15.57a.94.94 0 0 0 .1.57ZM23.38 60h-.76l-1.59-3.18 1.64-13.88a.938.938 0 0 0 .66 0l1.64 13.88ZM34 46v14h-8.38l1.27-2.55a.94.94 0 0 0 .1-.57l-1.84-15.57 2.3 1.52A.967.967 0 0 0 28 43a1.153 1.153 0 0 0 .26-.03 1.024 1.024 0 0 0 .63-.52l2.39-4.78 3.58 1.35a10.611 10.611 0 0 1 1.63.78 1.013 1.013 0 0 0 .1 1.02l1.63 2.17a10.291 10.291 0 0 0-.68 1.64l-2.68.38A1 1 0 0 0 34 46Zm8 14h-6v-8.85l1.54.22a10.291 10.291 0 0 0 .68 1.64l-1.63 2.17a.994.994 0 0 0 .1 1.31l2.82 2.82a1.006 1.006 0 0 0 1.31.1l1.18-.89Zm18-10.87-2.46.35a1.019 1.019 0 0 0-.83.75 8.664 8.664 0 0 1-.98 2.35 1.017 1.017 0 0 0 .06 1.11l1.5 1.99-1.61 1.61-1.99-1.5a1.017 1.017 0 0 0-1.11-.06 8.664 8.664 0 0 1-2.35.98 1.019 1.019 0 0 0-.75.83L49.13 60h-2.26l-.35-2.46a1.019 1.019 0 0 0-.75-.83 8.664 8.664 0 0 1-2.35-.98 1.017 1.017 0 0 0-1.11.06l-1.99 1.5-1.61-1.61 1.5-1.99a1.017 1.017 0 0 0 .06-1.11 8.664 8.664 0 0 1-.98-2.35 1.019 1.019 0 0 0-.83-.75L36 49.13v-2.26l2.46-.35a1.019 1.019 0 0 0 .83-.75 8.664 8.664 0 0 1 .98-2.35 1.017 1.017 0 0 0-.06-1.11l-1.5-1.99 1.61-1.61 1.99 1.5a1.017 1.017 0 0 0 1.11.06 8.664 8.664 0 0 1 2.35-.98 1.019 1.019 0 0 0 .75-.83l.35-2.46h2.26l.35 2.46a1.019 1.019 0 0 0 .75.83 8.664 8.664 0 0 1 2.35.98 1.017 1.017 0 0 0 1.11-.06l1.99-1.5 1.61 1.61-1.5 1.99a1.017 1.017 0 0 0-.06 1.11 8.664 8.664 0 0 1 .98 2.35 1.019 1.019 0 0 0 .83.75l2.46.35Z"/><path fill="#3d9ae2" d="M48 42a6 6 0 1 0 6 6 6.006 6.006 0 0 0-6-6zm0 10a4 4 0 1 1 4-4 4 4 0 0 1-4 4zm7.95-25.83a6.934 6.934 0 0 0-2-4.11A6.756 6.756 0 0 0 51 20.31V20a2.006 2.006 0 0 0-2-2h-2a2.006 2.006 0 0 0-2 2v.3a6.96 6.96 0 0 0-4.95 5.87A2.991 2.991 0 0 0 41 32h14a2.991 2.991 0 0 0 .95-5.83zM51 22.43A4.946 4.946 0 0 1 53.9 26H51zM47 20h2v6h-2zm-2 2.43V26h-2.9a4.961 4.961 0 0 1 2.9-3.57zM55 30H41a1 1 0 0 1 0-2h14a1 1 0 0 1 0 2z"/></svg>