<svg xmlns="http://www.w3.org/2000/svg" enable-background="new 0 0 64 64" viewBox="0 0 64 64"><path d="M62.38 0H1.62C.73 0 0 .73 0 1.62v8.61h64V1.62C64 .73 63.27 0 62.38 0zM6.31 8.13c-1.66 0-3.02-1.35-3.02-3.02 0-1.66 1.36-3.02 3.02-3.02 1.67 0 3.02 1.36 3.02 3.02C9.33 6.78 7.98 8.13 6.31 8.13zM13.25 8.13c-1.67 0-3.02-1.35-3.02-3.02 0-1.66 1.35-3.02 3.02-3.02 1.67 0 3.02 1.36 3.02 3.02C16.28 6.78 14.93 8.13 13.25 8.13zM20.2 8.13c-1.67 0-3.02-1.35-3.02-3.02 0-1.66 1.35-3.02 3.02-3.02 1.66 0 3.02 1.36 3.02 3.02C23.23 6.78 21.86 8.13 20.2 8.13zM57.7 6.14H28.79c-.57 0-1.03-.45-1.03-1.03 0-.57.46-1.03 1.03-1.03H57.7c.57 0 1.03.46 1.03 1.03C58.74 5.69 58.27 6.14 57.7 6.14zM0 62.38C0 63.27.73 64 1.62 64h60.76c.89 0 1.62-.73 1.62-1.62V12.29H0V62.38zM5.73 54.8V44.4c0-.57.46-1.03 1.03-1.03h21.8c.57 0 1.03.46 1.03 1.03V54.8c0 .57-.46 1.03-1.03 1.03H6.76C6.19 55.83 5.73 55.37 5.73 54.8zM59.24 60.21H9.69c-.57 0-1.03-.46-1.03-1.03 0-.57.46-1.03 1.03-1.03h49.55c.57 0 1.03.46 1.03 1.03C60.27 59.75 59.81 60.21 59.24 60.21zM36.28 17.81c0-.57.46-1.03 1.03-1.03h21.8c.57 0 1.03.46 1.03 1.03v11.23c0 .57-.46 1.03-1.03 1.03h-21.8c-.57 0-1.03-.46-1.03-1.03V17.81zM35.87 33.83c0-.57.46-1.03 1.03-1.03h21.72c.57 0 1.03.46 1.03 1.03v5.45c0 .57-.46 1.03-1.03 1.03H36.9c-.57 0-1.03-.46-1.03-1.03V33.83zM59.65 46.61c0 .57-.46 1.03-1.03 1.03H39.46c-.57 0-1.03-.46-1.03-1.03 0-.57.46-1.03 1.03-1.03h19.16C59.19 45.57 59.65 46.04 59.65 46.61zM35.46 51.86h23.78c.57 0 1.03.46 1.03 1.03 0 .57-.46 1.03-1.03 1.03H35.46c-.57 0-1.03-.46-1.03-1.03C34.43 52.33 34.89 51.86 35.46 51.86zM3.83 24.59c.32-1.19 1.55-2.66 5.56-2.97.49-.03 1.01-.04 1.54-.04.01-.54.02-1.05.06-1.55.35-4.01 1.84-5.22 3.02-5.53 1.2-.31 3.09.01 5.36 3.33.28.41.55.85.81 1.31 3.18-1.82 6.1-2.45 7.68-.86.87.88 1.53 2.67-.22 6.31-.21.44-.45.89-.72 1.35 3.16 1.84 5.17 4.06 4.57 6.21-.32 1.19-1.55 2.66-5.56 2.97-.46.03-.96.05-1.47.05h-.07c-.01.53-.02 1.04-.06 1.54-.35 4.01-1.84 5.22-3.03 5.53-.22.05-.45.09-.71.09-1.18 0-2.78-.71-4.63-3.43-.28-.41-.55-.86-.82-1.32-.45.27-.92.52-1.36.72-1.64.76-2.91 1.05-3.88 1.05-1.2 0-1.95-.43-2.43-.91-.87-.88-1.53-2.67.22-6.31.21-.44.45-.89.72-1.35C5.24 28.97 3.23 26.75 3.83 24.59z"/><path d="M6.31 3.84c-.7 0-1.27.57-1.27 1.27 0 .7.57 1.27 1.27 1.27.7 0 1.27-.57 1.27-1.27C7.58 4.41 7.01 3.84 6.31 3.84zM13.25 3.84c-.7 0-1.27.57-1.27 1.27 0 .7.57 1.27 1.27 1.27.7 0 1.27-.57 1.27-1.27C14.52 4.41 13.95 3.84 13.25 3.84zM20.2 3.84c-.7 0-1.27.57-1.27 1.27 0 .71.56 1.27 1.27 1.27.7 0 1.27-.57 1.27-1.27C21.47 4.41 20.9 3.84 20.2 3.84z"/><rect width="19.74" height="9.17" x="38.35" y="18.84"/><rect width="19.74" height="8.34" x="7.79" y="45.43"/><path d="M24.05 26.54c-.28-.14-.57-.27-.88-.4l-.42-.17.14.43c.05.16.1.32.16.56 0 0 .12.48.15.58l.11.41.96-1.29L24.05 26.54zM22.46 33.23l-.02-.24c-.02-.31-.05-.64-.09-.96l-.06-.44-.3.32c-.13.14-.27.29-.45.47-.13.12-.26.24-.39.37l-.3.3.42.05c.32.04.63.07.94.1l.03-.2-.02.21L22.46 33.23zM16.78 33.9l-.59-.14-.57-.17-.41-.1.17.4c.12.28.24.57.38.85l.1.23 1.33-.96L16.78 33.9zM11.28 30.2c.28.14.58.27.88.4l.42.17-.14-.43c-.05-.14-.09-.28-.13-.43l-.29-1.13-.26.34c-.11.14-.71.97-.71.97L11.28 30.2zM14.47 23.69l-.42-.05c-.32-.04-.63-.07-.95-.1l-.24-.02.02.24c.02.31.05.64.09.96l.08.41.3-.32c.13-.14.25-.27.38-.4.15-.14.29-.27.44-.42L14.47 23.69zM18.57 22.85c.11.03.57.15.57.15l.98.28-.64-1.48-.2.14c-.19.13-.37.26-.55.39l-.56.41L18.57 22.85zM22.09 23.86l.03.09.09.03c.99.36 1.93.76 2.79 1.17l.17.08.1-.16c.26-.44.5-.88.7-1.3 1.14-2.37 1.04-3.72.57-4.19-.24-.24-.62-.36-1.11-.36-1.07 0-2.67.57-4.4 1.57l-.16.09.08.17C21.35 21.9 21.73 22.84 22.09 23.86zM15.97 22.27l.09.02.07-.06c.88-.72 1.67-1.32 2.41-1.83l.16-.11-.09-.17c-.25-.44-.51-.87-.77-1.25-1.6-2.35-2.72-2.61-3.12-2.61-.07 0-.16 0-.23.03-.65.17-1.41 1.28-1.64 3.89-.04.47-.06.97-.06 1.48v.19l.19.02C13.95 21.95 14.95 22.09 15.97 22.27zM9.41 29.24l.16.1.11-.16c.53-.76 1.16-1.56 1.86-2.39l.06-.07-.02-.1c-.18-.97-.3-1.98-.38-2.99l-.01-.19-.54-.01c-.39 0-.76.01-1.12.05-2.61.19-3.74.95-3.92 1.6C5.34 26.11 6.8 27.71 9.41 29.24zM10.15 31.5l-.1.16c-.21.36-.48.82-.7 1.3-1.14 2.37-1.04 3.72-.57 4.19.22.23.61.35 1.12.35.8 0 1.86-.3 3.08-.87.43-.2.87-.44 1.31-.69l.16-.09-.08-.17c-.41-.88-.79-1.82-1.14-2.8l-.03-.09-.09-.03c-.99-.36-1.93-.76-2.79-1.17L10.15 31.5zM19.36 34.46l-.09-.02-.07.06c-.81.67-1.63 1.29-2.42 1.84l-.16.11.09.16c.25.44.51.87.77 1.25 1.14 1.66 2.28 2.61 3.11 2.61.09 0 .17-.01.24-.03.65-.17 1.42-1.28 1.64-3.89.04-.47.06-.97.06-1.48v-.19l-.19-.02C21.45 34.79 20.47 34.66 19.36 34.46zM16.59 24.29c-.51.45-1.02.93-1.54 1.43s-.99 1.02-1.46 1.54c.13.67.29 1.36.48 2.05.18.69.38 1.36.59 2.02.65.22 1.31.42 2.02.62.69.19 1.37.35 2.05.5.52-.46 1.03-.94 1.54-1.43.52-.51.99-1.02 1.46-1.54-.13-.67-.29-1.36-.47-2.05-.18-.69-.38-1.36-.6-2.02-.64-.22-1.3-.42-2.01-.62C17.95 24.6 17.27 24.43 16.59 24.29zM25.75 27.41l-.11.16c-.53.76-1.16 1.56-1.86 2.39l-.06.07.02.09c.19 1.1.31 2.08.38 2.99l.01.19.55.01c.38 0 .76-.01 1.11-.05 2.62-.19 3.74-.95 3.91-1.6.28-1.04-1.17-2.63-3.79-4.17L25.75 27.41z"/><rect width="19.65" height="3.39" x="37.94" y="34.86"/></svg>