<svg xmlns="http://www.w3.org/2000/svg" viewBox="0 0 64 64"><path d="M59.01137,7.4925h-36a3.00069,3.00069,0,0,0-1,5.82v25.55l-6.58,2.63h-1.42v-.525c9.39859-3.47644,7.1399-17.283-3.00013-17.475-10.14145.1928-12.39709,14.00033-2.99987,17.475a6.67845,6.67845,0,0,0,.02.795,8.02028,8.02028,0,0,0-6.02,7.78v3.95a1.00354,1.00354,0,0,0,.5.87,16.26866,16.26866,0,0,0,8.53,2.13,16.02218,16.02218,0,0,0,7.47-2.13,1.00352,1.00352,0,0,0,.5-.87v-6.97l3-1.2v1.17a1.003,1.003,0,0,0,1,1h17v1.142a3.99264,3.99264,0,1,0,2,0v-1.142h17a1.003,1.003,0,0,0,1-1v-33.18A3.00063,3.00063,0,0,0,59.01137,7.4925Zm-16,45a1.99584,1.99584,0,1,1-2.9494-1.74914.98035.98035,0,0,0,1.89887,0A1.99388,1.99388,0,0,1,43.01137,52.4925Zm-39-20a7.0085,7.0085,0,0,1,7-7c9.27356.35248,9.271,13.64893-.00009,14A7.00849,7.00849,0,0,1,4.01137,32.4925Zm7,9a9.0321,9.0321,0,0,0,1-.059,1.00014,1.00014,0,1,1-2,0A9.03239,9.03239,0,0,0,11.01137,41.4925Zm47,4h-34v-.97l8.11-3.24a3.00267,3.00267,0,0,0-2.22-5.57992l-5.88995,2.36v-24.57h34Z"/><path d="M32.52138 22.2425a11.35974 11.35974 0 00-.52 1.25 1.99732 1.99732 0 00-1.99 2v2a1.99736 1.99736 0 001.99 2 11.363 11.363 0 00.52 1.25 2.01651 2.01651 0 000 2.82l1.42 1.42a2.0165 2.0165 0 002.82 0 11.35585 11.35585 0 001.25.52 1.99736 1.99736 0 002 1.99h2a1.99735 1.99735 0 002-1.99 11.35423 11.35423 0 001.25-.52 2.01651 2.01651 0 002.82 0l1.42-1.42a2.01651 2.01651 0 000-2.82 11.35909 11.35909 0 00.52-1.25 1.99735 1.99735 0 001.99-2v-2a1.99732 1.99732 0 00-1.99-2 11.35585 11.35585 0 00-.52-1.25 2.0165 2.0165 0 000-2.82l-1.42-1.42a2.01653 2.01653 0 00-2.82 0 11.35812 11.35812 0 00-1.25-.52 1.99736 1.99736 0 00-2-1.99h-2a1.99736 1.99736 0 00-2 1.99 11.35974 11.35974 0 00-1.25.52 2.0165 2.0165 0 00-2.82 0l-1.42 1.42A2.01652 2.01652 0 0032.52138 22.2425zm12.49 4.25a4.00015 4.00015 0 01-8-.00008A4.00015 4.00015 0 0145.01137 26.4925zM51.01137 17.4925h4a1.0001 1.0001 0 000-2l-4 0A1.0001 1.0001 0 0051.01137 17.4925zM55.01137 18.4925h-2a1.0001 1.0001 0 00.00005 2h1.99995A1.0001 1.0001 0 0055.01137 18.4925zM55.01137 37.4925h-4a1.0001 1.0001 0 00.00005 2h3.99995A1.0001 1.0001 0 0055.01137 37.4925zM55.01137 40.4925h-2a1.0001 1.0001 0 00.00005 2h1.99995A1.0001 1.0001 0 0055.01137 40.4925zM27.01137 17.4925h4a1.0001 1.0001 0 000-2l-4 0A1.0001 1.0001 0 0027.01137 17.4925zM27.01137 20.4925h2a1.0001 1.0001 0 000-2l-2 0A1.0001 1.0001 0 0027.01137 20.4925z"/></svg>