<svg xmlns="http://www.w3.org/2000/svg" viewBox="0 0 64 64"><path fill="#878686" d="m31.055 28.745 5.865-4.101c.95-.962 1.098-2.569.283-3.764l-.233-.342 2.05-2.052.043-.049c-1.598-4.194-.59-8.95 2.578-12.116a11.269 11.269 0 0 1 8.02-3.325c1.778 0 3.555.427 5.136 1.237l.611.313-9.794 9.794 4.046 4.045 9.793-9.794.314.612A11.287 11.287 0 0 1 57.68 22.36a11.29 11.29 0 0 1-8.04 3.323 11.35 11.35 0 0 1-4.076-.754l-9.163 9.162-5.346-5.346z"/><path fill="#EDDCBC" d="m31.056 28.745-2.158 1.508 8.024-5.611c1.11-1.123 1.077-3.043-.07-4.194-.878-.882-2.428-1.196-3.584-1.196-.826 0-1.564.152-2.08.43-.95.51-1.893 1.072-2.823 1.627-.075.047-1.856 1.158-2.431 1.56-1.65 1.15-3.702 2.58-5.375 2.58-.268 0-.522-.037-.756-.112-.796-.253-1.405-.95-1.811-2.075-.01-.024-2.984-8.254-2.984-8.254L3.15 24.776l1.703 2.863A46.637 46.637 0 0 1 9.606 38.72c.823 2.89 1.939 6.118 3.973 8.153l5.067 5.067c.558.558 1.3.865 2.09.865s1.534-.307 2.091-.865c.559-.559.866-1.3.866-2.09 0-.784-.302-1.521-.853-2.079.678.672 1.575 1.057 2.462 1.057.796 0 1.518-.3 2.087-.87a3.064 3.064 0 0 0 .903-2.182c0-.464-.105-.93-.307-1.344-.206-.425-.494-.711-.83-1.047l-5.908-5.932 6.054 6.053a3.356 3.356 0 0 0 2.23.825c.892 0 1.748-.345 2.35-.946a3.346 3.346 0 0 0 0-4.726l-5.916-5.923 5.916 5.916c.592.59 1.409.925 2.31.94.84 0 1.632-.33 2.23-.93a3.221 3.221 0 0 0 0-4.551l-5.365-5.366z"/><path fill="#878686" d="M7.59 61a4.562 4.562 0 0 1-3.245-1.345A4.562 4.562 0 0 1 3 56.41a4.56 4.56 0 0 1 1.345-3.246l7.926-7.927.344.475c.352.487.658.856.964 1.162l5.02 5.02-7.762 7.762A4.559 4.559 0 0 1 7.59 61zm.688-7.542c-.62 0-1.21.235-1.62.645-.432.432-.67 1.007-.67 1.62s.238 1.187.67 1.619c.432.432 1.008.67 1.62.67s1.187-.238 1.62-.67c.432-.432.67-1.008.67-1.62s-.238-1.187-.67-1.62c-.41-.41-1-.644-1.62-.644z"/><path d="M59.87 8.353a.498.498 0 0 0-.785-.1l-9.425 9.425-3.339-3.338 9.426-9.425a.5.5 0 0 0-.1-.785c-4.635-2.734-10.543-1.98-14.36 1.837-3.229 3.228-4.3 8.036-2.79 12.335l-1.57 1.573c-1.55-1.241-4.511-1.419-5.976-.634-.963.517-1.914 1.085-2.833 1.633 0 0-1.883 1.174-2.467 1.582-1.85 1.29-4.16 2.897-5.696 2.405-.649-.206-1.137-.784-1.493-1.768l-2.864-7.923v-.002a.5.5 0 1 0-.941.34l.122.337 2.743 7.59c.462 1.276 1.179 2.077 2.13 2.379 2.015.64 4.54-1.123 6.571-2.538.568-.396 2.407-1.543 2.407-1.543.91-.543 1.851-1.105 2.795-1.611 1.224-.658 3.956-.442 5.073.68.977.979.977 2.57.068 3.488l-7.954 5.553a.5.5 0 0 0 .572.82L31 29.396l5.07 5.07a2.721 2.721 0 0 1 0 3.843 2.633 2.633 0 0 1-1.879.784c-.73-.012-1.435-.274-1.955-.794l-5.916-5.916a.502.502 0 0 0-.712.71l5.92 5.92a2.846 2.846 0 0 1 0 4.02c-1.035 1.035-2.807 1.062-3.895.1L21.6 37.1a.504.504 0 0 0-.72.012.5.5 0 0 0 0 .707l5.92 5.92c.288.287.553.537.735.911a2.587 2.587 0 0 1-.5 2.954c-1.12 1.12-2.804.853-3.855-.199l-5.689-5.688-.254-.255a.5.5 0 1 0-.707.707l.254.255 5.689 5.688c.463.464.72 1.081.72 1.738A2.458 2.458 0 0 1 19 51.587l-5.068-5.068c-1.953-1.953-3.04-5.108-3.846-7.936a47.144 47.144 0 0 0-4.803-11.2L3.8 24.89l-.028-.047a.5.5 0 1 0-.859.512l.106.178 1.406 2.362a46.113 46.113 0 0 1 4.7 10.962c.601 2.11 1.365 4.392 2.52 6.298L3.99 52.81a5.057 5.057 0 0 0-1.491 3.6c0 1.359.53 2.637 1.491 3.599s2.24 1.491 3.6 1.491c1.36 0 2.638-.53 3.6-1.491l7.439-7.439a3.418 3.418 0 0 0 2.107.736c.923 0 1.79-.36 2.444-1.013s1.012-1.52 1.012-2.443a3.49 3.49 0 0 0-.065-.673c.352.112.714.183 1.08.183.917 0 1.835-.35 2.534-1.048a3.562 3.562 0 0 0 1.05-2.536 3.57 3.57 0 0 0-.166-1.027c.29.069.586.115.892.115 1.026 0 1.99-.4 2.716-1.125 1.025-1.025 1.33-2.486.953-3.79.312.085.632.143.963.143h.046c.97 0 1.884-.381 2.58-1.077 1.335-1.335 1.424-3.434.299-4.89L45.7 25.5c1.286.452 2.615.682 3.938.682 3.094 0 6.133-1.207 8.395-3.469a11.82 11.82 0 0 0 1.836-14.36zM10.482 59.302A4.062 4.062 0 0 1 7.591 60.5a4.066 4.066 0 0 1-2.893-1.198A4.066 4.066 0 0 1 3.5 56.409c0-1.093.426-2.12 1.198-2.892l7.512-7.513c.315.435.645.852 1.016 1.222l4.667 4.667-7.41 7.409zm46.843-37.296a10.887 10.887 0 0 1-11.583 2.456.499.499 0 0 0-.524.11c-.003.002-.006 0-.008.003l-8.81 8.809-4.57-4.571 5.375-3.76a3.512 3.512 0 0 0 .41-4.455l1.809-1.808c.005-.006.004-.01.009-.016a.497.497 0 0 0 .104-.517 10.885 10.885 0 0 1 2.456-11.583A10.819 10.819 0 0 1 54.57 4.678l-9.308 9.309a.5.5 0 0 0 0 .707l4.046 4.045a.5.5 0 0 0 .707 0L59.32 9.43a10.82 10.82 0 0 1-1.995 12.575z"/><path d="M6.305 53.749c-.528.527-.818 1.228-.818 1.973s.29 1.446.818 1.973c.527.528 1.228.818 1.973.818s1.446-.29 1.973-.818c.527-.527.817-1.228.817-1.973s-.29-1.446-.817-1.973c-1.054-1.055-2.893-1.055-3.946 0zm3.239 3.24c-.698.698-1.834.698-2.532 0s-.699-1.835 0-2.533c.349-.35.807-.523 1.266-.523s.917.174 1.266.523a1.792 1.792 0 0 1 0 2.532z"/></svg>