<svg xmlns="http://www.w3.org/2000/svg" fill-rule="evenodd" stroke-linejoin="round" stroke-miterlimit="2" clip-rule="evenodd" viewBox="0 0 64 64"><path fill="none" d="M0 0h64v64H0z"/><path d="M46.018 42.001a1 1 0 0 0-1 1v11h-32v-11a1 1 0 0 0-1-1h-4a1 1 0 0 0-1 1v16a1 1 0 0 0 1 1h42a1 1 0 0 0 1-1v-16a1 1 0 0 0-1-1h-4Z"/><path d="M41.02 47.001a1 1 0 0 0-1.001-1h-22a1 1 0 0 0-1 1v4a1 1 0 0 0 1 1h22a1 1 0 0 0 1-1v-4Zm-2.001 1v2h-20v-2h20ZM41.985 40.396a1 1 0 0 0-.707-1.225l-21.251-5.694a1 1 0 0 0-1.225.707l-1.035 3.864a1 1 0 0 0 .707 1.225l21.25 5.694a1 1 0 0 0 1.226-.707l1.035-3.864Zm-2.191.448-.518 1.932L19.958 37.6l.518-1.932 19.318 5.176ZM44.938 34.037a1 1 0 0 0-.367-1.366l-19.052-11a1 1 0 0 0-1.367.366l-2 3.464a1 1 0 0 0 .367 1.366l19.052 11a1 1 0 0 0 1.367-.366l2-3.464Zm-2.233-.134-1 1.732-17.32-10 1-1.732 17.32 10ZM50.226 28.88a1 1 0 0 0 0-1.415L34.669 11.909a1 1 0 0 0-1.414 0l-2.829 2.828a1 1 0 0 0 0 1.414l15.557 15.557a1 1 0 0 0 1.415 0l2.828-2.828Zm-2.122-.708-1.414 1.414-14.142-14.142 1.415-1.414 14.141 14.142ZM56.482 24.92a1 1 0 0 0 .366-1.367l-11-19.053a1 1 0 0 0-1.366-.366l-3.464 2a1 1 0 0 0-.366 1.366l11 19.053a1 1 0 0 0 1.366.367l3.464-2Zm-1.866-1.233-1.732 1-10-17.32 1.732-1 10 17.32Z"/></svg>