<svg xmlns="http://www.w3.org/2000/svg" fill-rule="evenodd" stroke-linejoin="round" stroke-miterlimit="2" clip-rule="evenodd" viewBox="0 0 64 64"><path d="M34.97 2.243A1 1 0 0 0 34 1H12a1 1 0 0 0-.97 1.243l.62 2.485A3.001 3.001 0 0 0 14.563 7h16.876a3.001 3.001 0 0 0 2.91-2.272l.622-2.485ZM11 61h24a1 1 0 0 0 0-2H11a1 1 0 0 0 0 2ZM60 25a5.002 5.002 0 0 0-5-5H25a5.002 5.002 0 0 0-5 5v20a5.002 5.002 0 0 0 5 5h30a5.002 5.002 0 0 0 5-5V25Zm-2 0v20a2.996 2.996 0 0 1-3 3H25a3 3 0 0 1-3-3V25a2.996 2.996 0 0 1 3-3h30a3 3 0 0 1 3 3Z"/><path d="M23 49h34c.552 0 2-3.448 2-4s.552-1 0-1H22a1 1 0 0 0-1 1c0 .552 1.448 4 2 4Z"/><path d="M46 49a1 1 0 0 0-1-1H35a1 1 0 0 0-1 1v4a1 1 0 0 0 1 1h10a1 1 0 0 0 1-1v-4Z"/><path d="M32.5 54H47a1 1 0 0 0 0-2H32.5a1 1 0 0 0 0 2ZM26 26h23a1 1 0 0 0 0-2H26a1 1 0 0 0 0 2ZM26 38h23a1 1 0 0 0 0-2H26a1 1 0 0 0 0 2ZM27.999 30h21a1 1 0 0 0 0-2h-21a1 1 0 0 0 0 2ZM27.999 42h21a1 1 0 0 0 0-2h-21a1 1 0 0 0 0 2ZM30.001 34h19a1 1 0 0 0 0-2h-19a1 1 0 0 0 0 2ZM54 24h-1a1 1 0 0 0 0 2h1a1 1 0 0 0 0-2ZM54 28h-1a1 1 0 0 0 0 2h1a1 1 0 0 0 0-2ZM54 32h-1a1 1 0 0 0 0 2h1a1 1 0 0 0 0-2ZM54 36h-1a1 1 0 0 0 0 2h1a1 1 0 0 0 0-2ZM54 40h-1a1 1 0 0 0 0 2h1a1 1 0 0 0 0-2ZM12.293 11.293l-3 3a.999.999 0 0 0 0 1.414l3 3a1 1 0 0 0 1.414-1.414L11.414 15l2.293-2.293a1 1 0 0 0-1.414-1.414ZM20.293 12.707 22.586 15l-2.293 2.293a1 1 0 0 0 1.414 1.414l3-3a.999.999 0 0 0 0-1.414l-3-3a1 1 0 0 0-1.414 1.414ZM17.051 11.684l-2 6a1.001 1.001 0 0 0 1.898.632l2-6a1.001 1.001 0 0 0-1.898-.632Z"/><path d="M42 56v2a7.003 7.003 0 0 1-7 7H11a7 7 0 0 1-7-7V8a7.003 7.003 0 0 1 7-7h24a7 7 0 0 1 7 7v10h-2V8a5.004 5.004 0 0 0-1.464-3.536A5.004 5.004 0 0 0 35 3H11a5.004 5.004 0 0 0-3.536 1.464A5.004 5.004 0 0 0 6 8v50c0 1.326.527 2.598 1.464 3.536A5.004 5.004 0 0 0 11 63h24a5.004 5.004 0 0 0 3.536-1.464A5.004 5.004 0 0 0 40 58v-2h2Z"/></svg>